<svg data-v-423bf9ae="" xmlns="http://www.w3.org/2000/svg" viewBox="0 0 320 90" class="iconLeftSlogan"><!----><!----><!----><g data-v-423bf9ae="" id="b4d479a9-d6c3-4aa3-8cb2-c7773d7466d3" fill="#253D52" transform="matrix(4.23131161556461,0,0,4.23131161556461,90.86545144874398,3.7235533670553664)"><path d="M2.66 10.50L0.84 10.50L0.84 3.08L2.66 3.08L2.66 10.50ZM0.76-0.18L2.74-0.18L2.74 1.79L0.76 1.79L0.76-0.18ZM10.65 5.42L10.65 10.50L8.85 10.50L8.85 5.71Q8.85 5.15 8.55 4.82Q8.26 4.48 7.67 4.48L7.67 4.48Q6.65 4.48 6.13 5.33L6.13 5.33L6.13 10.50L4.31 10.50L4.31 5.18L4.19 3.08L5.80 3.08L5.96 4.06Q6.76 2.90 8.37 2.90L8.37 2.90Q9.52 2.90 10.09 3.61Q10.65 4.33 10.65 5.42L10.65 5.42ZM16.41 10.50L13.89 10.50L11.58 3.08L13.48 3.08L15.15 8.99L16.81 3.08L18.70 3.08L16.41 10.50ZM25.30 9.68Q24.46 10.68 22.78 10.68Q21.10 10.68 20.26 9.68Q19.42 8.68 19.42 7.01L19.42 7.01L19.42 6.57Q19.42 4.89 20.26 3.89Q21.10 2.90 22.78 2.90Q24.46 2.90 25.30 3.89Q26.14 4.89 26.14 6.57L26.14 6.57L26.14 7.01Q26.14 8.68 25.30 9.68ZM21.24 7.01Q21.24 9.09 22.78 9.09Q24.32 9.09 24.32 7.01L24.32 7.01L24.32 6.57Q24.32 4.48 22.78 4.48Q21.24 4.48 21.24 6.57L21.24 6.57L21.24 7.01ZM29.32 10.50L27.50 10.50L27.50 3.08L29.32 3.08L29.32 10.50ZM27.41-0.18L29.40-0.18L29.40 1.79L27.41 1.79L27.41-0.18ZM32.48 6.57L32.48 7.01Q32.48 9.09 33.98 9.09L33.98 9.09Q34.64 9.09 34.97 8.73Q35.29 8.37 35.29 7.80L35.29 7.80L37.02 7.80L37.02 8.09Q37.02 9.23 36.23 9.95Q35.43 10.68 33.94 10.68L33.94 10.68Q32.30 10.68 31.48 9.68Q30.66 8.68 30.66 7.01L30.66 7.01L30.66 6.57Q30.66 4.89 31.48 3.89Q32.30 2.90 33.94 2.90L33.94 2.90Q35.45 2.90 36.23 3.65Q37.02 4.41 37.02 5.60L37.02 5.60L37.02 5.91L35.29 5.91Q35.29 5.24 34.97 4.86Q34.64 4.48 33.98 4.48L33.98 4.48Q32.48 4.48 32.48 6.57L32.48 6.57ZM40.17 10.50L38.35 10.50L38.35 3.08L40.17 3.08L40.17 10.50ZM38.26-0.18L40.25-0.18L40.25 1.79L38.26 1.79L38.26-0.18ZM44.28 1.92L44.28 1.92L44.28 3.08L46.06 3.08L46.06 4.68L44.28 4.68L44.28 10.50L42.46 10.50L42.46 4.68L41.33 4.68L41.33 3.08L42.46 3.08L42.46 1.71Q42.46-0.88 45.05-0.88L45.05-0.88Q45.84-0.88 46.20-0.70L46.20-0.70L46.20 0.81Q45.98 0.70 45.49 0.70L45.49 0.70Q44.87 0.70 44.58 0.96Q44.28 1.22 44.28 1.92ZM48.75 3.08L50.37 8.23L52.01 3.08L53.97 3.08L51.35 10.14L50.37 13.30L48.22 13.30L49.39 10.14L46.77 3.08L48.75 3.08Z"></path></g><defs data-v-423bf9ae=""><linearGradient data-v-423bf9ae="" gradientTransform="rotate(25)" id="0f88f626-3456-4b43-8dbc-1988d7354fe8" x1="0%" y1="0%" x2="100%" y2="0%"><stop data-v-423bf9ae="" offset="0%" style="stop-color: rgb(0, 125, 232); stop-opacity: 1;"></stop><stop data-v-423bf9ae="" offset="100%" style="stop-color: rgb(161, 195, 219); stop-opacity: 1;"></stop></linearGradient></defs><g data-v-423bf9ae="" id="ef11f3df-3a6d-49a2-bf74-01c396286b3a" transform="matrix(2.8125,0,0,2.8125,-7.170000076293945,0)" stroke="none" fill="url(#0f88f626-3456-4b43-8dbc-1988d7354fe8)"><path d="M2.83 18.247l26.34-9.124L2.83 0zM29.17 32V13.753L2.83 22.877z"></path></g><!----><g data-v-423bf9ae="" id="ba7e2451-ff68-4165-bfbe-0145133f6c11" fill="#253D52" transform="matrix(0.9391932621319405,0,0,0.9391932621319405,93.01996069838772,58.0276951914452)"><path d="M7.95 3.22L7.95 2.21L1.13 2.21L1.13 11.48L7.95 11.48L7.95 10.47L2.18 10.47L2.18 7.35L7.34 7.35L7.34 6.33L2.18 6.33L2.18 3.22ZM23.34 3.22L23.34 2.21L16.65 2.21L16.65 11.48L17.70 11.48L17.70 7.46L22.72 7.46L22.72 6.44L17.70 6.44L17.70 3.22ZM38.50 3.22L38.50 2.21L31.81 2.21L31.81 11.48L32.86 11.48L32.86 7.46L37.88 7.46L37.88 6.44L32.86 6.44L32.86 3.22ZM51.09 2.10C48.27 2.10 46.38 4.21 46.38 6.85C46.38 9.48 48.27 11.59 51.09 11.59C53.90 11.59 55.79 9.48 55.79 6.85C55.79 4.21 53.90 2.10 51.09 2.10ZM51.09 10.57C48.83 10.57 47.43 8.93 47.43 6.85C47.43 4.76 48.83 3.12 51.09 3.12C53.34 3.12 54.74 4.76 54.74 6.85C54.74 8.93 53.34 10.57 51.09 10.57ZM65.52 7.92L68.74 7.92L70.98 11.48L72.23 11.48L69.79 7.74C70.83 7.50 72.03 6.90 72.03 5.11C72.03 3.35 70.81 2.21 68.91 2.21L64.47 2.21L64.47 11.48L65.52 11.48ZM65.52 3.21L68.78 3.21C70.10 3.21 70.98 3.93 70.98 5.11C70.98 6.55 69.72 6.93 68.73 6.93L65.52 6.93ZM87.29 2.21L79.77 2.21L79.77 3.22L83.01 3.22L83.01 11.48L84.06 11.48L84.06 3.22L87.29 3.22ZM95.62 2.21L95.62 11.48L101.72 11.48L101.72 10.47L96.67 10.47L96.67 2.21ZM116.90 3.22L116.90 2.21L110.08 2.21L110.08 11.48L116.90 11.48L116.90 10.47L111.13 10.47L111.13 7.35L116.28 7.35L116.28 6.33L111.13 6.33L111.13 3.22ZM126.10 4.65C126.10 4.03 126.46 3.08 128.56 3.08C130.26 3.08 131.04 3.82 131.15 4.75L132.23 4.75C132.15 3.36 131.03 2.10 128.56 2.10C126.24 2.10 125.08 3.15 125.08 4.66C125.08 7.84 131.42 6.69 131.42 8.96C131.42 10.05 130.44 10.60 128.87 10.60C127.26 10.60 125.96 10.05 125.89 8.71L124.80 8.71C124.94 10.37 126.06 11.59 128.80 11.59C131.08 11.59 132.47 10.64 132.47 8.92C132.47 5.68 126.10 6.80 126.10 4.65ZM141.71 4.65C141.71 4.03 142.07 3.08 144.17 3.08C145.87 3.08 146.65 3.82 146.76 4.75L147.84 4.75C147.76 3.36 146.64 2.10 144.17 2.10C141.85 2.10 140.69 3.15 140.69 4.66C140.69 7.84 147.03 6.69 147.03 8.96C147.03 10.05 146.05 10.60 144.48 10.60C142.87 10.60 141.57 10.05 141.50 8.71L140.41 8.71C140.55 10.37 141.67 11.59 144.41 11.59C146.69 11.59 148.08 10.64 148.08 8.92C148.08 5.68 141.71 6.80 141.71 4.65ZM163.52 3.22L163.52 2.21L156.70 2.21L156.70 11.48L163.52 11.48L163.52 10.47L157.75 10.47L157.75 7.35L162.90 7.35L162.90 6.33L157.75 6.33L157.75 3.22ZM172.21 2.21L172.21 11.48L178.32 11.48L178.32 10.47L173.26 10.47L173.26 2.21ZM189.03 7.81L192.91 2.21L191.63 2.21L188.50 6.72L185.36 2.21L184.09 2.21L187.98 7.81L187.98 11.48L189.03 11.48Z"></path></g></svg>